<svg width="81" height="81" viewBox="0 0 81 81" fill="none" xmlns="http://www.w3.org/2000/svg">
<path d="M0 3C0 1.34314 1.34315 0 3 0H78C79.6569 0 81 1.34315 81 3V78C81 79.6569 79.6569 81 78 81H3C1.34314 81 0 79.6569 0 78V3Z" fill="white"/>
<path d="M31.6998 29L36.4706 32.7778L38 41.8444L31.6998 46L25 41.8444L26.9118 32.7778L31.6998 29Z" stroke="url(#paint0_linear)" stroke-width="12" stroke-linecap="round" stroke-linejoin="round"/>
<path d="M11.716 35.936C11.796 37.248 11.428 38.368 11.108 38.736C10.052 39.76 11.124 40.848 12.004 40.032C12.804 39.28 12.692 37.728 11.924 35.936H11.716ZM18.628 40.832V36.464H19.988V40.832H18.628ZM23.06 36.464V40.832H21.748V36.464H23.06ZM22.484 42.448C22.772 43.056 23.06 43.792 23.284 44.528L21.748 44.656V41.296H23.06V42.128H23.364C24.228 42.128 24.788 41.808 24.788 41.728V36.576C25.14 36.512 25.3 36.432 25.412 36.288L23.812 35.072L23.012 36H21.748V33.232C22.148 33.184 22.26 33.024 22.292 32.816L19.988 32.576V36H18.804L16.98 35.296V36.16L15.588 35.296C15.428 35.904 15.028 36.976 14.644 37.92C14.676 36.496 14.66 34.912 14.676 33.184C15.044 33.12 15.22 32.96 15.268 32.72L12.996 32.512C12.996 39.712 13.412 44.08 10.756 47.104L10.948 47.328C12.98 46 13.892 44.24 14.324 41.952C14.74 42.752 15.076 43.712 15.108 44.56C16.5 45.824 17.972 43.024 14.42 41.312C14.532 40.528 14.58 39.68 14.628 38.768C15.476 38.064 16.388 37.152 16.852 36.608C16.9 36.624 16.932 36.624 16.98 36.64V42.464H17.268C18.116 42.464 18.628 42.176 18.628 42.048V41.296H19.988V44.784C18.34 44.912 16.948 44.992 16.164 45.024L16.964 47.2C17.156 47.168 17.348 47.04 17.444 46.832C20.036 46.112 21.988 45.536 23.444 45.04C23.604 45.68 23.716 46.304 23.732 46.912C25.396 48.528 27.092 44.88 22.66 42.384L22.484 42.448ZM36.084 35.264C36.18 37.168 35.348 38.784 34.468 39.408C34.02 39.776 33.812 40.336 34.116 40.848C34.516 41.424 35.412 41.424 36.004 40.8C36.868 39.92 37.508 38.08 36.292 35.248L36.084 35.264ZM44.98 35.184C44.436 36.464 43.284 38.544 42.196 40.112C41.508 38.336 41.188 36.16 41.06 33.472V33.2C41.46 33.136 41.604 32.992 41.652 32.736L38.98 32.48C38.98 39.04 39.396 43.664 32.932 47.168L33.076 47.408C39.46 45.2 40.676 41.776 40.948 37.248C41.38 42.272 42.596 45.584 46.388 47.408C46.596 46.4 47.188 45.76 48.116 45.584L48.148 45.424C45.156 44.4 43.396 42.848 42.372 40.544C44.068 39.392 45.684 37.904 46.74 36.784C47.124 36.832 47.252 36.736 47.348 36.576L44.98 35.184Z" fill="#333333"/>
<path d="M63.796 38.672H70.004C70.244 38.672 70.42 38.592 70.468 38.416C69.7 37.744 68.452 36.832 68.452 36.832L67.332 38.208H67.076L67.268 34.096C67.588 34.064 67.716 34 67.844 33.856L65.988 32.464L65.204 33.376H57.284L57.428 33.84H65.332L65.22 35.824H57.764L57.908 36.288H65.22L65.124 38.208H55.508L55.652 38.672H61.908V41.76C59.236 42.928 56.708 43.952 55.604 44.352L57.044 46.224C57.22 46.128 57.332 45.936 57.364 45.728C59.332 44.384 60.804 43.28 61.908 42.368V45.088C61.908 45.264 61.828 45.376 61.572 45.376C61.204 45.376 59.46 45.264 59.46 45.264V45.472C60.308 45.616 60.692 45.824 60.948 46.096C61.188 46.384 61.3 46.816 61.316 47.408C63.492 47.248 63.796 46.384 63.796 45.136V39.424C64.724 43.136 66.436 44.96 68.852 46.352C69.076 45.472 69.572 44.8 70.308 44.608L70.356 44.448C68.82 44 67.156 43.312 65.844 42.032C66.9 41.584 68.004 40.976 68.756 40.512C69.14 40.592 69.268 40.512 69.364 40.368L67.412 39.04C67.028 39.744 66.228 40.848 65.508 41.696C64.788 40.912 64.18 39.952 63.796 38.72V38.672ZM57.348 39.264C58.02 39.92 58.756 40.992 58.964 41.92C60.692 43.104 62.132 39.712 57.492 39.168L57.348 39.264Z" fill="#828282"/>
<path d="M23.83 60.09C24.658 60.09 25.384 59.508 25.384 58.422C25.384 57.336 24.634 56.754 23.83 56.754C23.014 56.754 22.27 57.342 22.27 58.422C22.27 59.502 22.99 60.09 23.83 60.09ZM23.83 59.85C23.284 59.85 22.972 59.37 22.972 58.428C22.972 57.48 23.284 56.988 23.83 56.988C24.364 56.988 24.688 57.48 24.688 58.428C24.688 59.37 24.364 59.85 23.83 59.85ZM26.573 58.53H28.157V58.134H26.573V58.53ZM34.0472 56.844H32.8352V57.048L33.3692 57.126L32.7212 59.268L31.9412 57.12L32.4392 57.048V56.844H30.9872V57.048L31.4732 57.114L30.7172 59.286L30.0092 57.108L30.5192 57.048V56.844H28.9652V57.048L29.3252 57.102L30.3932 60.036H30.6692L31.5452 57.63C31.6892 58.104 31.8992 58.698 32.4032 60.036H32.6732L33.6692 57.12L34.0472 57.048V56.844ZM34.8394 58.53H36.4234V58.134H34.8394V58.53ZM39.1616 60.09C39.9896 60.09 40.7156 59.508 40.7156 58.422C40.7156 57.336 39.9656 56.754 39.1616 56.754C38.3456 56.754 37.6016 57.342 37.6016 58.422C37.6016 59.502 38.3216 60.09 39.1616 60.09ZM39.1616 59.85C38.6156 59.85 38.3036 59.37 38.3036 58.428C38.3036 57.48 38.6156 56.988 39.1616 56.988C39.6956 56.988 40.0196 57.48 40.0196 58.428C40.0196 59.37 39.6956 59.85 39.1616 59.85ZM47.8584 56.028C48.1464 56.028 48.3804 55.824 48.3804 55.542C48.3804 55.254 48.1464 55.05 47.8584 55.05C47.5764 55.05 47.3424 55.254 47.3424 55.542C47.3424 55.824 47.5764 56.028 47.8584 56.028ZM48.3744 59.778C48.3684 59.43 48.3624 58.908 48.3624 58.572V57.648L48.3864 56.688L48.3024 56.628L46.9284 56.988V57.132L47.3784 57.18C47.3904 57.486 47.3964 57.708 47.3964 58.092V58.572C47.3964 58.908 47.3904 59.424 47.3844 59.778L46.9884 59.814V60H48.7404V59.814L48.3744 59.778ZM53.1828 59.784C53.1708 59.436 53.1648 58.926 53.1648 58.572V57.78C53.1648 56.994 52.7748 56.622 52.2048 56.622C51.8088 56.622 51.4788 56.76 51.0828 57.216L51.0468 56.688L50.9628 56.628L49.6608 57.006V57.15L50.1108 57.198C50.1228 57.486 50.1288 57.684 50.1288 58.074V58.572C50.1288 58.908 50.1228 59.424 50.1168 59.778L49.7148 59.814V60H51.4488V59.814L51.1068 59.784C51.1008 59.43 51.0948 58.908 51.0948 58.572V57.414C51.3528 57.186 51.5988 57.072 51.7788 57.072C52.0608 57.072 52.1928 57.24 52.1928 57.708V58.572C52.1928 58.92 52.1868 59.43 52.1808 59.778L51.8028 59.814V60H53.5428V59.814L53.1828 59.784ZM57.9304 59.766L56.8384 57.624L57.5584 56.964L58.1464 56.904V56.724H56.5804V56.904L57.1864 56.976L55.8904 58.23V56.064L55.9144 55.098L55.8304 55.044L54.4864 55.302V55.458L54.9244 55.5V58.572C54.9244 58.884 54.9184 59.43 54.9124 59.778L54.5104 59.814V60H56.2804V59.814L55.9024 59.778C55.8964 59.43 55.8904 58.878 55.8904 58.524V58.482L56.1604 58.236L57.0124 60H58.3204V59.814L57.9304 59.766Z" fill="#828282"/>
<path d="M43.5858 60.168C44.1018 60.168 44.5098 59.76 44.5098 59.256C44.5098 58.74 44.1018 58.332 43.5858 58.332C43.0698 58.332 42.6498 58.74 42.6498 59.256C42.6498 59.76 43.0698 60.168 43.5858 60.168Z" fill="#F2994A"/>
<defs>
<linearGradient id="paint0_linear" x1="30.7353" y1="3.31113" x2="30.7353" y2="48.6444" gradientUnits="userSpaceOnUse">
<stop stop-color="#FFE259"/>
<stop offset="0.723958" stop-color="#FFC107"/>
<stop offset="1" stop-color="#FF6347"/>
</linearGradient>
</defs>
</svg>
