<svg width="122" height="122" viewBox="0 0 122 122" fill="none" 
  xmlns="http://www.w3.org/2000/svg">
  <path d="M1 115V7C1 3.68629 3.68629 1 7 1H115C118.314 1 121 3.68629 121 7V115C121 118.314 118.314 121 115 121H7C3.68629 121 1 118.314 1 115Z" fill="white" stroke="white" stroke-linecap="round" stroke-linejoin="round"/>
  <path d="M60.4237 34C54.842 34 50.0865 42.3374 48.1986 45.7704C46.3108 49.2035 43.3246 68.4846 44.137 77.5086C44.9495 86.5326 53.217 86.967 60.4237 86.967C67.6305 86.967 76.5811 87.9339 77.7998 79.4003C79.0186 70.8667 74.3418 48.7131 72.6929 45.7704C71.0441 42.8278 66.0055 34 60.4237 34Z" stroke="url(#paint0_linear)" stroke-width="36"/>
  <path d="M39.212 53.452C39.272 54.436 38.996 55.276 38.756 55.552C37.964 56.32 38.768 57.136 39.428 56.524C40.028 55.96 39.944 54.796 39.368 53.452H39.212ZM44.396 57.124V53.848H45.416V57.124H44.396ZM47.72 53.848V57.124H46.736V53.848H47.72ZM47.288 58.336C47.504 58.792 47.72 59.344 47.888 59.896L46.736 59.992V57.472H47.72V58.096H47.948C48.596 58.096 49.016 57.856 49.016 57.796V53.932C49.28 53.884 49.4 53.824 49.484 53.716L48.284 52.804L47.684 53.5H46.736V51.424C47.036 51.388 47.12 51.268 47.144 51.112L45.416 50.932V53.5H44.528L43.16 52.972V53.62L42.116 52.972C41.996 53.428 41.696 54.232 41.408 54.94C41.432 53.872 41.42 52.684 41.432 51.388C41.708 51.34 41.84 51.22 41.876 51.04L40.172 50.884C40.172 56.284 40.484 59.56 38.492 61.828L38.636 61.996C40.16 61 40.844 59.68 41.168 57.964C41.48 58.564 41.732 59.284 41.756 59.92C42.8 60.868 43.904 58.768 41.24 57.484C41.324 56.896 41.36 56.26 41.396 55.576C42.032 55.048 42.716 54.364 43.064 53.956C43.1 53.968 43.124 53.968 43.16 53.98V58.348H43.376C44.012 58.348 44.396 58.132 44.396 58.036V57.472H45.416V60.088C44.18 60.184 43.136 60.244 42.548 60.268L43.148 61.9C43.292 61.876 43.436 61.78 43.508 61.624C45.452 61.084 46.916 60.652 48.008 60.28C48.128 60.76 48.212 61.228 48.224 61.684C49.472 62.896 50.744 60.16 47.42 58.288L47.288 58.336ZM57.488 52.948C57.56 54.376 56.936 55.588 56.276 56.056C55.94 56.332 55.784 56.752 56.012 57.136C56.312 57.568 56.984 57.568 57.428 57.1C58.076 56.44 58.556 55.06 57.644 52.936L57.488 52.948ZM64.16 52.888C63.752 53.848 62.888 55.408 62.072 56.584C61.556 55.252 61.316 53.62 61.22 51.604V51.4C61.52 51.352 61.628 51.244 61.664 51.052L59.66 50.86C59.66 55.78 59.972 59.248 55.124 61.876L55.232 62.056C60.02 60.4 60.932 57.832 61.136 54.436C61.46 58.204 62.372 60.688 65.216 62.056C65.372 61.3 65.816 60.82 66.512 60.688L66.536 60.568C64.292 59.8 62.972 58.636 62.204 56.908C63.476 56.044 64.688 54.928 65.48 54.088C65.768 54.124 65.864 54.052 65.936 53.932L64.16 52.888ZM78.272 55.504H82.928C83.108 55.504 83.24 55.444 83.276 55.312C82.7 54.808 81.764 54.124 81.764 54.124L80.924 55.156H80.732L80.876 52.072C81.116 52.048 81.212 52 81.308 51.892L79.916 50.848L79.328 51.532H73.388L73.496 51.88H79.424L79.34 53.368H73.748L73.856 53.716H79.34L79.268 55.156H72.056L72.164 55.504H76.856V57.82C74.852 58.696 72.956 59.464 72.128 59.764L73.208 61.168C73.34 61.096 73.424 60.952 73.448 60.796C74.924 59.788 76.028 58.96 76.856 58.276V60.316C76.856 60.448 76.796 60.532 76.604 60.532C76.328 60.532 75.02 60.448 75.02 60.448V60.604C75.656 60.712 75.944 60.868 76.136 61.072C76.316 61.288 76.4 61.612 76.412 62.056C78.044 61.936 78.272 61.288 78.272 60.352V56.068C78.968 58.852 80.252 60.22 82.064 61.264C82.232 60.604 82.604 60.1 83.156 59.956L83.192 59.836C82.04 59.5 80.792 58.984 79.808 58.024C80.6 57.688 81.428 57.232 81.992 56.884C82.28 56.944 82.376 56.884 82.448 56.776L80.984 55.78C80.696 56.308 80.096 57.136 79.556 57.772C79.016 57.184 78.56 56.464 78.272 55.54V55.504ZM73.436 55.948C73.94 56.44 74.492 57.244 74.648 57.94C75.944 58.828 77.024 56.284 73.544 55.876L73.436 55.948Z" fill="white"/>
  <defs>
    <linearGradient id="paint0_linear" x1="62.8954" y1="-46.039" x2="62.8954" y2="95.2062" gradientUnits="userSpaceOnUse">
      <stop stop-color="#FFE259"/>
      <stop offset="0.723958" stop-color="#FFC107"/>
      <stop offset="1" stop-color="#FF6347"/>
    </linearGradient>
  </defs>
</svg>
