<svg width="148" height="148" viewBox="0 0 148 148" fill="none" 
  xmlns="http://www.w3.org/2000/svg">
  <g filter="url(#filter0_d)">
    <g filter="url(#filter1_d)">
      <path d="M14 124V16C14 12.6863 16.6863 10 20 10H128C131.314 10 134 12.6863 134 16V124C134 127.314 131.314 130 128 130H20C16.6863 130 14 127.314 14 124Z" fill="white"/>
      <path d="M14 124V16C14 12.6863 16.6863 10 20 10H128C131.314 10 134 12.6863 134 16V124C134 127.314 131.314 130 128 130H20C16.6863 130 14 127.314 14 124Z" stroke="white" stroke-linecap="round" stroke-linejoin="round"/>
    </g>
    <path d="M67.6998 53L72.4706 56.7778L74 65.8444L67.6998 70L61 65.8444L62.9118 56.7778L67.6998 53Z" stroke="url(#paint0_linear)" stroke-width="12" stroke-linecap="round" stroke-linejoin="round"/>
    <path d="M47.716 59.936C47.796 61.248 47.428 62.368 47.108 62.736C46.052 63.76 47.124 64.848 48.004 64.032C48.804 63.28 48.692 61.728 47.924 59.936H47.716ZM54.628 64.832V60.464H55.988V64.832H54.628ZM59.06 60.464V64.832H57.748V60.464H59.06ZM58.484 66.448C58.772 67.056 59.06 67.792 59.284 68.528L57.748 68.656V65.296H59.06V66.128H59.364C60.228 66.128 60.788 65.808 60.788 65.728V60.576C61.14 60.512 61.3 60.432 61.412 60.288L59.812 59.072L59.012 60H57.748V57.232C58.148 57.184 58.26 57.024 58.292 56.816L55.988 56.576V60H54.804L52.98 59.296V60.16L51.588 59.296C51.428 59.904 51.028 60.976 50.644 61.92C50.676 60.496 50.66 58.912 50.676 57.184C51.044 57.12 51.22 56.96 51.268 56.72L48.996 56.512C48.996 63.712 49.412 68.08 46.756 71.104L46.948 71.328C48.98 70 49.892 68.24 50.324 65.952C50.74 66.752 51.076 67.712 51.108 68.56C52.5 69.824 53.972 67.024 50.42 65.312C50.532 64.528 50.58 63.68 50.628 62.768C51.476 62.064 52.388 61.152 52.852 60.608C52.9 60.624 52.932 60.624 52.98 60.64V66.464H53.268C54.116 66.464 54.628 66.176 54.628 66.048V65.296H55.988V68.784C54.34 68.912 52.948 68.992 52.164 69.024L52.964 71.2C53.156 71.168 53.348 71.04 53.444 70.832C56.036 70.112 57.988 69.536 59.444 69.04C59.604 69.68 59.716 70.304 59.732 70.912C61.396 72.528 63.092 68.88 58.66 66.384L58.484 66.448ZM72.084 59.264C72.18 61.168 71.348 62.784 70.468 63.408C70.02 63.776 69.812 64.336 70.116 64.848C70.516 65.424 71.412 65.424 72.004 64.8C72.868 63.92 73.508 62.08 72.292 59.248L72.084 59.264ZM80.98 59.184C80.436 60.464 79.284 62.544 78.196 64.112C77.508 62.336 77.188 60.16 77.06 57.472V57.2C77.46 57.136 77.604 56.992 77.652 56.736L74.98 56.48C74.98 63.04 75.396 67.664 68.932 71.168L69.076 71.408C75.46 69.2 76.676 65.776 76.948 61.248C77.38 66.272 78.596 69.584 82.388 71.408C82.596 70.4 83.188 69.76 84.116 69.584L84.148 69.424C81.156 68.4 79.396 66.848 78.372 64.544C80.068 63.392 81.684 61.904 82.74 60.784C83.124 60.832 83.252 60.736 83.348 60.576L80.98 59.184Z" fill="#333333"/>
    <path d="M99.796 62.672H106.004C106.244 62.672 106.42 62.592 106.468 62.416C105.7 61.744 104.452 60.832 104.452 60.832L103.332 62.208H103.076L103.268 58.096C103.588 58.064 103.716 58 103.844 57.856L101.988 56.464L101.204 57.376H93.284L93.428 57.84H101.332L101.22 59.824H93.764L93.908 60.288H101.22L101.124 62.208H91.508L91.652 62.672H97.908V65.76C95.236 66.928 92.708 67.952 91.604 68.352L93.044 70.224C93.22 70.128 93.332 69.936 93.364 69.728C95.332 68.384 96.804 67.28 97.908 66.368V69.088C97.908 69.264 97.828 69.376 97.572 69.376C97.204 69.376 95.46 69.264 95.46 69.264V69.472C96.308 69.616 96.692 69.824 96.948 70.096C97.188 70.384 97.3 70.816 97.316 71.408C99.492 71.248 99.796 70.384 99.796 69.136V63.424C100.724 67.136 102.436 68.96 104.852 70.352C105.076 69.472 105.572 68.8 106.308 68.608L106.356 68.448C104.82 68 103.156 67.312 101.844 66.032C102.9 65.584 104.004 64.976 104.756 64.512C105.14 64.592 105.268 64.512 105.364 64.368L103.412 63.04C103.028 63.744 102.228 64.848 101.508 65.696C100.788 64.912 100.18 63.952 99.796 62.72V62.672ZM93.348 63.264C94.02 63.92 94.756 64.992 94.964 65.92C96.692 67.104 98.132 63.712 93.492 63.168L93.348 63.264Z" fill="#828282"/>
    <path d="M59.83 84.09C60.658 84.09 61.384 83.508 61.384 82.422C61.384 81.336 60.634 80.754 59.83 80.754C59.014 80.754 58.27 81.342 58.27 82.422C58.27 83.502 58.99 84.09 59.83 84.09ZM59.83 83.85C59.284 83.85 58.972 83.37 58.972 82.428C58.972 81.48 59.284 80.988 59.83 80.988C60.364 80.988 60.688 81.48 60.688 82.428C60.688 83.37 60.364 83.85 59.83 83.85ZM62.573 82.53H64.157V82.134H62.573V82.53ZM70.0472 80.844H68.8352V81.048L69.3692 81.126L68.7212 83.268L67.9412 81.12L68.4392 81.048V80.844H66.9872V81.048L67.4732 81.114L66.7172 83.286L66.0092 81.108L66.5192 81.048V80.844H64.9652V81.048L65.3252 81.102L66.3932 84.036H66.6692L67.5452 81.63C67.6892 82.104 67.8992 82.698 68.4032 84.036H68.6732L69.6692 81.12L70.0472 81.048V80.844ZM70.8394 82.53H72.4234V82.134H70.8394V82.53ZM75.1616 84.09C75.9896 84.09 76.7156 83.508 76.7156 82.422C76.7156 81.336 75.9656 80.754 75.1616 80.754C74.3456 80.754 73.6016 81.342 73.6016 82.422C73.6016 83.502 74.3216 84.09 75.1616 84.09ZM75.1616 83.85C74.6156 83.85 74.3036 83.37 74.3036 82.428C74.3036 81.48 74.6156 80.988 75.1616 80.988C75.6956 80.988 76.0196 81.48 76.0196 82.428C76.0196 83.37 75.6956 83.85 75.1616 83.85ZM83.8584 80.028C84.1464 80.028 84.3804 79.824 84.3804 79.542C84.3804 79.254 84.1464 79.05 83.8584 79.05C83.5764 79.05 83.3424 79.254 83.3424 79.542C83.3424 79.824 83.5764 80.028 83.8584 80.028ZM84.3744 83.778C84.3684 83.43 84.3624 82.908 84.3624 82.572V81.648L84.3864 80.688L84.3024 80.628L82.9284 80.988V81.132L83.3784 81.18C83.3904 81.486 83.3964 81.708 83.3964 82.092V82.572C83.3964 82.908 83.3904 83.424 83.3844 83.778L82.9884 83.814V84H84.7404V83.814L84.3744 83.778ZM89.1828 83.784C89.1708 83.436 89.1648 82.926 89.1648 82.572V81.78C89.1648 80.994 88.7748 80.622 88.2048 80.622C87.8088 80.622 87.4788 80.76 87.0828 81.216L87.0468 80.688L86.9628 80.628L85.6608 81.006V81.15L86.1108 81.198C86.1228 81.486 86.1288 81.684 86.1288 82.074V82.572C86.1288 82.908 86.1228 83.424 86.1168 83.778L85.7148 83.814V84H87.4488V83.814L87.1068 83.784C87.1008 83.43 87.0948 82.908 87.0948 82.572V81.414C87.3528 81.186 87.5988 81.072 87.7788 81.072C88.0608 81.072 88.1928 81.24 88.1928 81.708V82.572C88.1928 82.92 88.1868 83.43 88.1808 83.778L87.8028 83.814V84H89.5428V83.814L89.1828 83.784ZM93.9304 83.766L92.8384 81.624L93.5584 80.964L94.1464 80.904V80.724H92.5804V80.904L93.1864 80.976L91.8904 82.23V80.064L91.9144 79.098L91.8304 79.044L90.4864 79.302V79.458L90.9244 79.5V82.572C90.9244 82.884 90.9184 83.43 90.9124 83.778L90.5104 83.814V84H92.2804V83.814L91.9024 83.778C91.8964 83.43 91.8904 82.878 91.8904 82.524V82.482L92.1604 82.236L93.0124 84H94.3204V83.814L93.9304 83.766Z" fill="#828282"/>
    <path d="M79.5858 84.168C80.1018 84.168 80.5098 83.76 80.5098 83.256C80.5098 82.74 80.1018 82.332 79.5858 82.332C79.0698 82.332 78.6498 82.74 78.6498 83.256C78.6498 83.76 79.0698 84.168 79.5858 84.168Z" fill="#F2994A"/>
  </g>
  <defs>
    <filter id="filter0_d" x="9.5" y="9.5" width="129" height="129" filterUnits="userSpaceOnUse" color-interpolation-filters="sRGB">
      <feFlood flood-opacity="0" result="BackgroundImageFix"/>
      <feColorMatrix in="SourceAlpha" type="matrix" values="0 0 0 0 0 0 0 0 0 0 0 0 0 0 0 0 0 0 127 0"/>
      <feOffset dy="4"/>
      <feGaussianBlur stdDeviation="2"/>
      <feColorMatrix type="matrix" values="0 0 0 0 0 0 0 0 0 0 0 0 0 0 0 0 0 0 0.25 0"/>
      <feBlend mode="normal" in2="BackgroundImageFix" result="effect1_dropShadow"/>
      <feBlend mode="normal" in="SourceGraphic" in2="effect1_dropShadow" result="shape"/>
    </filter>
    <filter id="filter1_d" x="0.5" y="0.5" width="147" height="147" filterUnits="userSpaceOnUse" color-interpolation-filters="sRGB">
      <feFlood flood-opacity="0" result="BackgroundImageFix"/>
      <feColorMatrix in="SourceAlpha" type="matrix" values="0 0 0 0 0 0 0 0 0 0 0 0 0 0 0 0 0 0 127 0"/>
      <feOffset dy="4"/>
      <feGaussianBlur stdDeviation="6.5"/>
      <feColorMatrix type="matrix" values="0 0 0 0 0 0 0 0 0 0 0 0 0 0 0 0 0 0 0.25 0"/>
      <feBlend mode="normal" in2="BackgroundImageFix" result="effect1_dropShadow"/>
      <feBlend mode="normal" in="SourceGraphic" in2="effect1_dropShadow" result="shape"/>
    </filter>
    <linearGradient id="paint0_linear" x1="66.7353" y1="27.3111" x2="66.7353" y2="72.6444" gradientUnits="userSpaceOnUse">
      <stop stop-color="#FFE259"/>
      <stop offset="0.723958" stop-color="#FFC107"/>
      <stop offset="1" stop-color="#FF6347"/>
    </linearGradient>
  </defs>
</svg>
