<svg width="109" height="109" viewBox="0 0 109 109" fill="none" xmlns="http://www.w3.org/2000/svg">
<g filter="url(#filter0_d)">
<path d="M14 85V16C14 12.6863 16.6863 10 20 10H89C92.3137 10 95 12.6863 95 16V85C95 88.3137 92.3137 91 89 91H20C16.6863 91 14 88.3137 14 85Z" fill="white"/>
<path d="M14 85V16C14 12.6863 16.6863 10 20 10H89C92.3137 10 95 12.6863 95 16V85C95 88.3137 92.3137 91 89 91H20C16.6863 91 14 88.3137 14 85Z" stroke="white" stroke-linecap="round" stroke-linejoin="round"/>
</g>
<path d="M45.6998 39L50.4706 42.7778L52 51.8444L45.6998 56L39 51.8444L40.9118 42.7778L45.6998 39Z" stroke="url(#paint0_linear)" stroke-width="12" stroke-linecap="round" stroke-linejoin="round"/>
<path d="M25.716 45.936C25.796 47.248 25.428 48.368 25.108 48.736C24.052 49.76 25.124 50.848 26.004 50.032C26.804 49.28 26.692 47.728 25.924 45.936H25.716ZM32.628 50.832V46.464H33.988V50.832H32.628ZM37.06 46.464V50.832H35.748V46.464H37.06ZM36.484 52.448C36.772 53.056 37.06 53.792 37.284 54.528L35.748 54.656V51.296H37.06V52.128H37.364C38.228 52.128 38.788 51.808 38.788 51.728V46.576C39.14 46.512 39.3 46.432 39.412 46.288L37.812 45.072L37.012 46H35.748V43.232C36.148 43.184 36.26 43.024 36.292 42.816L33.988 42.576V46H32.804L30.98 45.296V46.16L29.588 45.296C29.428 45.904 29.028 46.976 28.644 47.92C28.676 46.496 28.66 44.912 28.676 43.184C29.044 43.12 29.22 42.96 29.268 42.72L26.996 42.512C26.996 49.712 27.412 54.08 24.756 57.104L24.948 57.328C26.98 56 27.892 54.24 28.324 51.952C28.74 52.752 29.076 53.712 29.108 54.56C30.5 55.824 31.972 53.024 28.42 51.312C28.532 50.528 28.58 49.68 28.628 48.768C29.476 48.064 30.388 47.152 30.852 46.608C30.9 46.624 30.932 46.624 30.98 46.64V52.464H31.268C32.116 52.464 32.628 52.176 32.628 52.048V51.296H33.988V54.784C32.34 54.912 30.948 54.992 30.164 55.024L30.964 57.2C31.156 57.168 31.348 57.04 31.444 56.832C34.036 56.112 35.988 55.536 37.444 55.04C37.604 55.68 37.716 56.304 37.732 56.912C39.396 58.528 41.092 54.88 36.66 52.384L36.484 52.448ZM50.084 45.264C50.18 47.168 49.348 48.784 48.468 49.408C48.02 49.776 47.812 50.336 48.116 50.848C48.516 51.424 49.412 51.424 50.004 50.8C50.868 49.92 51.508 48.08 50.292 45.248L50.084 45.264ZM58.98 45.184C58.436 46.464 57.284 48.544 56.196 50.112C55.508 48.336 55.188 46.16 55.06 43.472V43.2C55.46 43.136 55.604 42.992 55.652 42.736L52.98 42.48C52.98 49.04 53.396 53.664 46.932 57.168L47.076 57.408C53.46 55.2 54.676 51.776 54.948 47.248C55.38 52.272 56.596 55.584 60.388 57.408C60.596 56.4 61.188 55.76 62.116 55.584L62.148 55.424C59.156 54.4 57.396 52.848 56.372 50.544C58.068 49.392 59.684 47.904 60.74 46.784C61.124 46.832 61.252 46.736 61.348 46.576L58.98 45.184Z" fill="#333333"/>
<path d="M77.796 48.672H84.004C84.244 48.672 84.42 48.592 84.468 48.416C83.7 47.744 82.452 46.832 82.452 46.832L81.332 48.208H81.076L81.268 44.096C81.588 44.064 81.716 44 81.844 43.856L79.988 42.464L79.204 43.376H71.284L71.428 43.84H79.332L79.22 45.824H71.764L71.908 46.288H79.22L79.124 48.208H69.508L69.652 48.672H75.908V51.76C73.236 52.928 70.708 53.952 69.604 54.352L71.044 56.224C71.22 56.128 71.332 55.936 71.364 55.728C73.332 54.384 74.804 53.28 75.908 52.368V55.088C75.908 55.264 75.828 55.376 75.572 55.376C75.204 55.376 73.46 55.264 73.46 55.264V55.472C74.308 55.616 74.692 55.824 74.948 56.096C75.188 56.384 75.3 56.816 75.316 57.408C77.492 57.248 77.796 56.384 77.796 55.136V49.424C78.724 53.136 80.436 54.96 82.852 56.352C83.076 55.472 83.572 54.8 84.308 54.608L84.356 54.448C82.82 54 81.156 53.312 79.844 52.032C80.9 51.584 82.004 50.976 82.756 50.512C83.14 50.592 83.268 50.512 83.364 50.368L81.412 49.04C81.028 49.744 80.228 50.848 79.508 51.696C78.788 50.912 78.18 49.952 77.796 48.72V48.672ZM71.348 49.264C72.02 49.92 72.756 50.992 72.964 51.92C74.692 53.104 76.132 49.712 71.492 49.168L71.348 49.264Z" fill="#828282"/>
<path d="M37.83 70.09C38.658 70.09 39.384 69.508 39.384 68.422C39.384 67.336 38.634 66.754 37.83 66.754C37.014 66.754 36.27 67.342 36.27 68.422C36.27 69.502 36.99 70.09 37.83 70.09ZM37.83 69.85C37.284 69.85 36.972 69.37 36.972 68.428C36.972 67.48 37.284 66.988 37.83 66.988C38.364 66.988 38.688 67.48 38.688 68.428C38.688 69.37 38.364 69.85 37.83 69.85ZM40.573 68.53H42.157V68.134H40.573V68.53ZM48.0472 66.844H46.8352V67.048L47.3692 67.126L46.7212 69.268L45.9412 67.12L46.4392 67.048V66.844H44.9872V67.048L45.4732 67.114L44.7172 69.286L44.0092 67.108L44.5192 67.048V66.844H42.9652V67.048L43.3252 67.102L44.3932 70.036H44.6692L45.5452 67.63C45.6892 68.104 45.8992 68.698 46.4032 70.036H46.6732L47.6692 67.12L48.0472 67.048V66.844ZM48.8394 68.53H50.4234V68.134H48.8394V68.53ZM53.1616 70.09C53.9896 70.09 54.7156 69.508 54.7156 68.422C54.7156 67.336 53.9656 66.754 53.1616 66.754C52.3456 66.754 51.6016 67.342 51.6016 68.422C51.6016 69.502 52.3216 70.09 53.1616 70.09ZM53.1616 69.85C52.6156 69.85 52.3036 69.37 52.3036 68.428C52.3036 67.48 52.6156 66.988 53.1616 66.988C53.6956 66.988 54.0196 67.48 54.0196 68.428C54.0196 69.37 53.6956 69.85 53.1616 69.85ZM61.8584 66.028C62.1464 66.028 62.3804 65.824 62.3804 65.542C62.3804 65.254 62.1464 65.05 61.8584 65.05C61.5764 65.05 61.3424 65.254 61.3424 65.542C61.3424 65.824 61.5764 66.028 61.8584 66.028ZM62.3744 69.778C62.3684 69.43 62.3624 68.908 62.3624 68.572V67.648L62.3864 66.688L62.3024 66.628L60.9284 66.988V67.132L61.3784 67.18C61.3904 67.486 61.3964 67.708 61.3964 68.092V68.572C61.3964 68.908 61.3904 69.424 61.3844 69.778L60.9884 69.814V70H62.7404V69.814L62.3744 69.778ZM67.1828 69.784C67.1708 69.436 67.1648 68.926 67.1648 68.572V67.78C67.1648 66.994 66.7748 66.622 66.2048 66.622C65.8088 66.622 65.4788 66.76 65.0828 67.216L65.0468 66.688L64.9628 66.628L63.6608 67.006V67.15L64.1108 67.198C64.1228 67.486 64.1288 67.684 64.1288 68.074V68.572C64.1288 68.908 64.1228 69.424 64.1168 69.778L63.7148 69.814V70H65.4488V69.814L65.1068 69.784C65.1008 69.43 65.0948 68.908 65.0948 68.572V67.414C65.3528 67.186 65.5988 67.072 65.7788 67.072C66.0608 67.072 66.1928 67.24 66.1928 67.708V68.572C66.1928 68.92 66.1868 69.43 66.1808 69.778L65.8028 69.814V70H67.5428V69.814L67.1828 69.784ZM71.9304 69.766L70.8384 67.624L71.5584 66.964L72.1464 66.904V66.724H70.5804V66.904L71.1864 66.976L69.8904 68.23V66.064L69.9144 65.098L69.8304 65.044L68.4864 65.302V65.458L68.9244 65.5V68.572C68.9244 68.884 68.9184 69.43 68.9124 69.778L68.5104 69.814V70H70.2804V69.814L69.9024 69.778C69.8964 69.43 69.8904 68.878 69.8904 68.524V68.482L70.1604 68.236L71.0124 70H72.3204V69.814L71.9304 69.766Z" fill="#828282"/>
<path d="M57.5858 70.168C58.1018 70.168 58.5098 69.76 58.5098 69.256C58.5098 68.74 58.1018 68.332 57.5858 68.332C57.0698 68.332 56.6498 68.74 56.6498 69.256C56.6498 69.76 57.0698 70.168 57.5858 70.168Z" fill="#F2994A"/>
<defs>
<filter id="filter0_d" x="0.5" y="0.5" width="108" height="108" filterUnits="userSpaceOnUse" color-interpolation-filters="sRGB">
<feFlood flood-opacity="0" result="BackgroundImageFix"/>
<feColorMatrix in="SourceAlpha" type="matrix" values="0 0 0 0 0 0 0 0 0 0 0 0 0 0 0 0 0 0 127 0"/>
<feOffset dy="4"/>
<feGaussianBlur stdDeviation="6.5"/>
<feColorMatrix type="matrix" values="0 0 0 0 0 0 0 0 0 0 0 0 0 0 0 0 0 0 0.25 0"/>
<feBlend mode="normal" in2="BackgroundImageFix" result="effect1_dropShadow"/>
<feBlend mode="normal" in="SourceGraphic" in2="effect1_dropShadow" result="shape"/>
</filter>
<linearGradient id="paint0_linear" x1="44.7353" y1="13.3111" x2="44.7353" y2="58.6444" gradientUnits="userSpaceOnUse">
<stop stop-color="#FFE259"/>
<stop offset="0.723958" stop-color="#FFC107"/>
<stop offset="1" stop-color="#FF6347"/>
</linearGradient>
</defs>
</svg>
